<svg width="425" height="514" viewBox="0 0 425 514" fill="none" xmlns="http://www.w3.org/2000/svg">
<path d="M230.142 5.05109C234.248 7.11246 238.321 9.23359 242.392 11.3636C246.529 13.4852 250.677 15.5852 254.829 17.6761C256.434 18.4844 256.434 18.4844 258.071 19.3091C289.248 34.8573 321.849 47.9357 355.392 57.3636C356.711 57.7382 356.711 57.7382 358.057 58.1204C370.784 61.657 383.62 63.4927 396.734 64.845C405.623 65.8391 413.17 67.0142 419.267 74.1761C419.821 74.8013 420.376 75.4265 420.947 76.0706C424.738 82.0852 424.681 88.4639 424.653 95.3474C424.656 96.3371 424.66 97.3268 424.664 98.3464C424.674 101.655 424.671 104.963 424.667 108.271C424.671 110.647 424.676 113.023 424.682 115.398C424.694 121.179 424.697 126.96 424.694 132.741C424.692 137.447 424.694 142.153 424.698 146.859C424.699 147.53 424.7 148.201 424.7 148.893C424.701 150.256 424.703 151.62 424.704 152.983C424.715 165.768 424.713 178.552 424.707 191.336C424.701 202.995 424.713 214.655 424.732 226.314C424.751 238.313 424.759 250.312 424.755 262.311C424.754 269.036 424.756 275.761 424.77 282.487C424.783 288.822 424.781 295.158 424.768 301.494C424.765 303.807 424.768 306.12 424.776 308.432C424.832 325.206 423.765 341.253 418.704 357.364C418.451 358.186 418.197 359.007 417.936 359.854C409.965 384.81 396.152 407.773 378.009 426.629C375.952 428.778 374.023 430.94 372.142 433.239C368.908 437.045 365.229 440.178 361.392 443.364C360.837 443.831 360.282 444.298 359.711 444.779C327.264 472.052 288.656 488.85 249.271 503.652C247.489 504.327 245.712 505.017 243.935 505.707C233.525 509.735 223.705 513.029 212.454 513.176C211.303 513.194 211.303 513.194 210.129 513.212C196.276 512.74 182.198 506.431 169.392 501.489C168.318 501.077 168.318 501.077 167.223 500.657C128.436 485.732 91.8425 467.888 60.3919 440.364C59.4728 439.568 58.5537 438.773 57.6068 437.953C52.4246 433.397 47.7998 428.664 43.3919 423.364C42.253 422.056 42.253 422.056 41.0911 420.723C17.0917 392.805 0.216396 356.453 0.251465 319.192C0.248494 318.195 0.245523 317.197 0.242462 316.169C0.23382 312.841 0.23227 309.512 0.230774 306.184C0.226143 303.792 0.221118 301.4 0.215729 299.008C0.202636 292.52 0.196123 286.033 0.191711 279.545C0.188942 275.491 0.184718 271.438 0.180222 267.384C0.168039 256.149 0.157731 244.915 0.154343 233.68C0.154123 232.962 0.153897 232.244 0.153671 231.505C0.153453 230.785 0.15324 230.066 0.153015 229.325C0.152572 227.867 0.152122 226.409 0.151672 224.951C0.151451 224.228 0.151229 223.505 0.151001 222.76C0.14705 211.036 0.129579 199.312 0.106308 187.587C0.0825824 175.536 0.0701354 163.486 0.0689697 151.435C0.068054 144.674 0.0623355 137.913 0.0441589 131.153C0.027696 124.796 0.0255028 118.44 0.0342865 112.084C0.0350577 109.752 0.0307034 107.421 0.0208282 105.089C0.00813051 101.904 0.0139778 98.7199 0.0244141 95.535C0.0163577 94.6143 0.00830054 93.6937 0 92.7452C0.0572425 85.2666 1.53257 78.817 6.64191 73.0511C7.18331 72.4156 7.72472 71.7801 8.28253 71.1253C15.0202 65.4981 23.1802 65.5045 31.5794 64.6136C88.0318 58.0288 140.614 32.5275 190.752 7.19122C191.88 6.62198 191.88 6.62198 193.031 6.04123C194.448 5.32585 195.863 4.60864 197.278 3.88931C209.245 -2.15521 218.501 -0.678621 230.142 5.05109Z" fill="#B5D8F4"/>
<path d="M184.265 118.443C144.288 125.736 110.253 151.037 92.245 186.693C87.9231 195.336 82.5208 212.264 80.81 222.348C78.9192 233.333 78.9192 252.961 80.81 263.946C89.6339 316.619 131.772 358.757 184.625 367.761C195.7 369.652 215.148 369.652 226.223 367.761C238.198 365.78 252.244 361.008 263.499 355.246C268.812 352.455 273.314 350.384 273.404 350.474C273.494 350.654 274.484 352.365 275.474 354.345C276.465 356.326 285.019 365.6 294.743 375.144C314.281 394.503 316.352 395.853 325.986 395.133C333.28 394.593 339.042 390.991 343.004 384.509C345.435 380.277 345.885 378.836 345.885 373.704C345.885 369.832 345.255 366.501 344.084 363.98C341.473 358.217 309.059 325.533 304.377 324.002C303.657 323.732 305.097 321.031 308.249 316.439C319.233 300.772 327.067 281.954 330.038 263.946C331.929 252.961 331.929 233.333 330.038 222.348C326.977 203.89 318.063 183.001 306.988 167.965C299.875 158.24 286.009 145.095 276.015 138.432C262.239 129.248 248.733 123.395 232.436 119.614C222.081 117.273 194.709 116.552 184.265 118.443ZM225.323 141.043C262.329 148.066 293.572 175.978 304.737 212.084C307.979 222.618 309.329 231.532 309.329 243.147C309.329 266.107 302.306 287.446 288.71 305.364C268.632 332.106 238.829 346.962 205.424 346.962C184.175 346.962 165.267 341.38 148.339 330.125C126.28 315.359 111.063 294.019 104.58 268.808C97.5573 241.527 102.239 211.994 117.366 187.503C123.849 177.059 139.335 161.572 149.78 155.089C172.56 141.043 199.211 136.091 225.323 141.043Z" fill="#1989FA"/>
<path d="M240.539 209.923C239.279 210.373 228.654 220.367 216.949 232.072L195.61 253.412L185.886 243.958C174.721 233.063 172.47 232.072 166.167 235.044C161.395 237.385 159.054 241.797 159.954 246.569C160.405 249.27 163.016 252.421 174.181 263.676C181.744 271.329 188.947 278.082 190.298 278.803C193.359 280.423 197.681 280.423 200.742 278.803C202.093 278.082 214.788 265.837 228.924 251.521C257.287 222.979 257.377 222.888 254.135 215.775C251.704 210.193 246.032 207.762 240.539 209.923Z" fill="#1989FA"/>
</svg>
